<svg xmlns="http://www.w3.org/2000/svg" width="360" height="165" viewBox="0 0 360 165"><g transform="translate(-1115 -403)"><g transform="translate(1115 403)" fill="#fff" stroke="#000" stroke-width="3"><rect width="360" height="146" rx="9" stroke="none"/><rect x="1.5" y="1.5" width="357" height="143" rx="7.5" fill="none"/></g><rect width="69.141" height="13" transform="translate(1260.429 549)"/><rect width="127.141" height="6" transform="translate(1231.429 562)"/><path d="M436-3436.319V-3448h4.474v7.788h17.895v3.894Z" transform="translate(2485.583 3644.958) rotate(-30)" fill="#33a19d"/><path d="M436-3436.319V-3448h4.474v7.788h17.895v3.894Z" transform="translate(2485.583 3673.958) rotate(-30)" fill="#33a19d"/><path d="M436-3436.319V-3448h4.474v7.788h17.895v3.894Z" transform="translate(2485.583 3702.958) rotate(-30)" fill="#33a19d"/><text transform="translate(1183 433)" fill="#707070" font-size="11" font-family="Oswald-Regular, Oswald"><tspan x="0" y="13">Easily track your financial goals with your transaction history</tspan></text><text transform="translate(1183 462)" fill="#707070" font-size="11" font-family="Oswald-Regular, Oswald"><tspan x="0" y="13">Conveniently create accounts for specific financial purpose</tspan></text><text transform="translate(1183 491)" fill="#707070" font-size="11" font-family="Oswald-Regular, Oswald"><tspan x="0" y="13">Transparently resolve all doubts on your transactions</tspan></text></g></svg>