<svg xmlns="http://www.w3.org/2000/svg" width="504.208" height="231.096" viewBox="0 0 504.208 231.096"><g transform="translate(-1115 -336.905)"><g transform="translate(1115 336.905)" fill="#fff" stroke="#000" stroke-width="3"><rect width="504.208" height="204.484" rx="9" stroke="none"/><rect x="1.5" y="1.5" width="501.208" height="201.484" rx="7.5" fill="none"/></g><rect width="96.838" height="18.208" transform="translate(1318.685 541.389)"/><rect width="178.071" height="8.403" transform="translate(1278.068 559.597)"/><path d="M0,16.36V0H6.266V10.907H31.329V16.36Z" transform="translate(1148.852 389.989) rotate(-30)" fill="#33a19d"/><path d="M0,16.36V0H6.266V10.907H31.329V16.36Z" transform="translate(1148.852 430.606) rotate(-30)" fill="#33a19d"/><path d="M0,16.36V0H6.266V10.907H31.329V16.36Z" transform="translate(1148.852 471.223) rotate(-30)" fill="#33a19d"/><text transform="translate(1210.239 378.922)" fill="#707070" font-size="16" font-family="Montserrat-Regular, Montserrat"><tspan x="0" y="15">Easily track your financial goals with your </tspan></text><text transform="translate(1210.239 419.539)" fill="#707070" font-size="16" font-family="Montserrat-Regular, Montserrat"><tspan x="0" y="15">Conveniently create accounts for specific </tspan></text><text transform="translate(1210.239 460.156)" fill="#707070" font-size="16" font-family="Montserrat-Regular, Montserrat"><tspan x="0" y="15">Transparently resolve all doubts on your </tspan></text></g></svg>